<svg version="1" xmlns="http://www.w3.org/2000/svg" width="1066.667" height="1066.667" viewBox="0 0 800.000000 800.000000"><path d="M0 112.1v80.1l3-.4c1.7-.3 3-.1 3 .3s1.4.4 3-.1c1.7-.5 3-.5 3 0s1.3.5 3 0 3-.5 3 0 1.3.5 3 0 3-.5 3 0 1.3.5 3 0 3-.5 3 0 1.3.5 3 0 3-.5 3 0 1.3.5 3 0 3-.5 3 0 1.3.5 3 0 3-.5 3 0 1.3.5 3 0 3-.5 3 0 1.3.5 3 0 3-.5 3 0 1.3.5 3 0 3-.5 3 0 1.3.5 2.9 0c1.5-.4 3.4-.4 4.2 0 .7.5 2.1.4 3-.1 1.1-.6 2-.5 2.4.1.3.5 1.5.6 2.9 0 1.2-.4 2.9-.4 3.6 0 .8.5 2.2.4 3.1-.1 1.1-.6 2-.5 2.4.1.3.5 1.5.6 2.8.1 1.2-.5 3.4-.5 4.9 0 1.6.4 2.8.4 2.8-.1s1.3-.5 3 0 3 .5 3 0 1.2-.5 2.8-.1c1.5.5 3.7.5 4.9 0 1.3-.5 2.5-.4 2.8.1.4.6 1.3.7 2.4.1.9-.5 2.3-.6 2.9-.2.7.4 3.5.4 6.2.1 2.8-.4 5-.3 5 .1s1.4.4 3-.1c1.7-.5 3-.5 3 0s1.3.5 3 0 3-.5 3 0 1.3.5 3 0 3-.5 3 0 1.3.5 3 0 3-.5 3 0 1.3.5 3 0 3-.5 3 0 1.3.5 3 0 3-.5 3 0 1.3.5 3 0 3-.5 3 0 1.3.5 3 0 3-.5 3 0 1.3.5 3 0 3-.5 3 0 1.3.5 3 0 3-.5 3 0 1.3.5 2.9 0c1.5-.4 3.4-.4 4.2 0 .7.5 2.1.4 3-.1 1.1-.6 2-.5 2.4.1.3.5 1.5.6 2.9 0 1.2-.4 2.9-.4 3.6 0 .8.5 2.2.4 3.1-.1 1.1-.6 2-.5 2.4.1.3.5 1.5.6 2.8.1 1.2-.5 3.4-.5 4.9 0 1.6.4 2.8.4 2.8-.1s1.3-.5 3 0 3 .5 3 0 1.2-.5 2.8-.1c1.5.5 3.7.5 4.9 0 1.3-.5 2.5-.4 2.8.1.4.6 1.3.7 2.4.1.9-.5 2.3-.6 3-.2.7.5 3 .5 5.1.1 2.1-.4 4.4-.4 5.1.1.7.4 2.1.3 3-.2 1.1-.6 2-.5 2.4.1.3.5 1.5.6 2.8.1 1.2-.5 3.4-.5 4.9 0 1.6.4 2.8.4 2.8-.1s1.3-.5 3 0 3 .5 3 0 1.2-.5 2.8-.1c1.5.5 3.7.5 4.9 0 1.3-.5 2.5-.4 2.8.1.3.6 1.5.6 3 0s2.7-.6 3 0c.3.6 1.5.6 3 0s2.7-.6 3 0c.4.6 1.3.7 2.4.1.9-.5 2.3-.6 3-.1.8.4 2.7.4 4.2 0 1.6-.5 2.9-.5 2.9 0s1.3.5 3 0 3-.5 3 0 1.3.5 3 0 3-.5 3 0 1.3.5 3 0 3-.5 3 0 1.3.5 3 0 3-.5 3 0 1.3.5 3 0 3-.5 3 0 1.3.5 3 0 3-.5 3 0 1.3.5 3 0 3-.5 3 0 1.3.5 3 0 3-.5 3 0 1.3.5 3 0 3-.5 3 0 1.3.5 3 0 3-.6 3-.2c0 .4 2.3.7 5 .7 2.8 0 5-.3 5-.7 0-.4 1.1-.3 2.5.2 1.5.6 2.7.6 3 0 .3-.5 1.5-.6 2.8-.1 1.2.5 3.2.5 4.4 0 1.3-.5 2.5-.4 2.8.2.4.6 1.3.6 2.3 0 .9-.5 2.6-.5 3.9 0 1.3.5 2.3.5 2.3 0s1.8-.5 4-.1 4 .4 4-.1 1.1-.4 2.5.1c1.5.6 2.7.6 3 0 .3-.5 1.5-.6 2.8-.1 1.2.5 3.2.5 4.4 0 1.3-.5 2.5-.4 2.8.2.4.6 1.3.6 2.3 0 .9-.5 2.6-.5 3.9 0 1.3.5 2.3.5 2.3.1s2.3-.7 5-.7c2.8 0 5 .3 5 .7 0 .4 1.3.3 3-.2s3-.5 3 0 1.3.5 2.9 0c1.5-.4 3.4-.4 4.2 0 .7.5 2 .5 2.9 0 .9-.5 2.2-.5 3 0 .8.5 2.1.5 3 0 .9-.5 2.2-.5 3 0 .8.5 2.1.5 3 0 .9-.5 2.2-.5 3 0 .8.5 2.1.5 3 0 .9-.5 2.2-.5 3 0 .8.5 2.1.5 3 0 .9-.5 2.2-.5 3 0 .8.5 2.1.5 3 0 .9-.5 2.2-.5 3 0 .8.5 2.1.5 3 0 .9-.5 2.2-.5 3 0 .8.5 2.1.5 3 0 .9-.5 2.2-.5 3 0 .8.5 2.1.5 3 0 .9-.5 2.2-.5 3 0 .8.5 2.1.5 3 0 .9-.5 2.2-.5 3 0 .8.5 2.1.5 3 0 .9-.5 2.2-.5 3 0 .8.5 2.1.5 3 0 .9-.5 2.2-.5 3 0 .8.5 2.1.5 3 0 .9-.5 2.2-.5 3 0 .8.5 2.1.5 3 0 .9-.5 2.2-.5 3 0 .8.5 2.1.5 3.1 0 .9-.5 1.9-.6 2.3-.3.8.8 11.2.7 12.6-.2.5-.3 1-.3 1 .2 0 .4 2.3.8 5 .8 2.8 0 5-.3 5-.7 0-.4 1.1-.3 2.5.2 1.5.6 2.7.6 3 0 .3-.5 1.5-.6 2.8-.1 1.2.5 3.2.5 4.4 0 1.3-.5 2.5-.4 2.8.2.4.6 1.3.6 2.3 0 .9-.5 2.6-.5 3.9 0 1.3.5 2.3.5 2.3 0s1.8-.5 4-.1 4 .4 4-.1 1.1-.4 2.5.1c1.5.6 2.7.6 3 0 .3-.5 1.5-.6 2.8-.1 1.2.5 3.2.5 4.4 0 1.3-.5 2.5-.4 2.8.2.4.6 1.3.6 2.3 0 .9-.5 2.6-.5 3.9 0 1.3.5 2.3.5 2.3.1 0-.8 8.9-.7 9.7.2.3.3 1.4.1 2.4-.4 1.1-.7 2-.7 2.4 0 .3.5 1.5.6 2.8.1 1.2-.5 3.4-.5 4.9 0 1.6.4 2.8.4 2.8-.1s1.3-.5 3 0 3 .5 3 0 1.2-.5 2.8-.1c1.5.5 3.7.5 4.9 0 1.3-.5 2.5-.4 2.8.1.3.6 1.5.6 3 0s2.7-.6 3 0c.3.6 1.5.6 3 0s2.7-.6 3 0c.4.6 1.3.7 2.4.1.9-.5 2.3-.6 3-.1.8.4 2.7.4 4.2 0 1.6-.5 2.9-.5 2.9 0s1.3.5 3 0 3-.5 3 0 1.3.5 3 0 3-.5 3 0 1.3.5 3 0 3-.5 3 0 1.3.5 3 0 3-.5 3 0 1.3.5 3 0 3-.5 3 0 1.3.5 3 0 3-.5 3 0 1.3.5 3 0 3-.5 3 0 1.3.5 3 0 3-.5 3 0 1.3.5 3 0 3-.5 3 0 1.3.5 3 0 3-.5 3-.1 2.7.4 6 .1c3.3-.3 6-.3 6 .1s1.3.4 3-.1c1.6-.5 3-.6 3-.2 0 .8 7.9.7 8.7-.2.3-.3 1.4-.1 2.4.4 1.1.7 2 .7 2.4 0 .3-.6 1.5-.6 2.9 0 1.3.5 2.7.6 3 .3.3-.4.6-36.6.6-80.5V32H0v80.1zm1.3 207.6c-1 .4-1.3 17.4-1.3 80.5v80l2.4-.4c1.4-.3 3-.1 3.7.3.7.4 2 .4 2.9-.1.9-.5 2.2-.5 3 0 .7.4 2.4.4 3.6 0 1.4-.6 2.6-.5 2.9 0 .3.5 1.8.5 3.5 0s3-.5 3 0 1.3.5 3 0 3-.5 3 0 1.3.5 3 0 3-.5 3 0 1.3.5 3 0 3-.6 3-.2c0 .8 6.8.7 7.6-.1.3-.3 1.7-.2 3 .3 1.4.6 2.6.6 2.9 0 .3-.5 1.6-.6 2.8-.1 2.2.8 6.9.6 9.3-.3.7-.3 1.6-.1 1.9.4.3.6 1.5.6 3 0 1.4-.5 2.7-.5 3 0 .3.5 1.8.5 3.5 0 1.6-.5 3.2-.5 3.5 0 .3.5 1.9.5 3.5 0 1.7-.5 3-.5 3 0s1.2.5 2.8.1c2.8-.7 7.5-.6 9.9.3.7.3 1.3.1 1.3-.4s1.3-.5 3 0 3 .5 3 0 1.3-.5 3 0 3 .5 3 0 1.3-.5 3 0 3 .5 3 0 1.3-.5 3 0 3 .5 3 0 1.3-.5 3 0 3 .5 3 0 1.3-.5 3 0 3 .5 3 0 1.3-.5 3 0 3 .5 3 0 1.3-.5 3 0 3 .5 3 0 1.2-.5 2.8-.1c2.8.7 7.4.6 9.8-.3.7-.3 1.6-.1 1.9.4.3.6 1.5.6 3 0 1.4-.5 2.7-.5 3 0 .3.5 1.8.5 3.5 0 1.6-.5 3.2-.5 3.5 0 .3.5 1.9.5 3.5 0 1.9-.5 3-.5 3 .1s.5.7 1 .4c1.4-.9 10.8-1 11.6-.2.4.3 1.4.2 2.3-.3 1-.5 2.3-.5 3.1 0 .7.4 2.4.4 3.6 0 1.4-.6 2.6-.5 2.9 0 .3.5 1.8.5 3.5 0s3-.5 3 0 1.3.5 3 0 3-.5 3 0 1.3.5 3 0 3-.5 3 0 1.3.5 3 0c1.6-.5 3-.6 3-.2 0 .8 6.8.7 7.6-.1.3-.3 1.7-.2 3 .3 1.4.6 2.6.6 2.9 0 .3-.5 1.6-.6 2.8-.1 2.2.8 6.9.6 9.3-.3.7-.3 1.6-.1 1.9.4.3.6 1.5.6 3 0 1.4-.5 2.7-.5 3 0 .3.5 1.8.5 3.5 0 1.6-.5 3.2-.5 3.5 0 .3.5 1.9.5 3.5 0 1.7-.5 3-.5 3 0s1.2.5 2.7.1c2.9-.7 7.6-.6 10 .3.7.3 1.3.1 1.3-.4s1.3-.5 3 0 3 .5 3 0 1.3-.5 3 0 3 .5 3 0 1.3-.5 3 0 3 .5 3 0 1.3-.5 3 0 3 .5 3 0 1.3-.5 3 0 3 .5 3 0 1.3-.5 3 0 3 .5 3 0 1.3-.5 3 0 3 .5 3 0 1.3-.5 3 0 3 .5 3 0 1.2-.5 2.8-.1c2.8.7 7.4.6 9.8-.3.7-.3 1.6-.1 1.9.4.3.6 1.5.6 3 0 1.4-.5 2.7-.5 3 0 .3.5 1.8.5 3.5 0 1.6-.5 3.2-.5 3.5 0 .3.5 1.9.5 3.5 0 1.9-.5 3-.5 3 .1s.5.7 1 .4c1.4-.9 10.8-1 11.6-.2.4.3 1.4.2 2.3-.3 1-.5 2.3-.5 3.1 0 .7.4 2.4.4 3.6 0 1.4-.6 2.6-.5 2.9 0 .3.5 1.8.5 3.5 0s3-.5 3 0 1.3.5 3 0 3-.5 3 0 1.3.5 3 0 3-.5 3 0 1.3.5 3 0c1.6-.5 3-.6 3-.2 0 .8 6.8.7 7.6-.1.3-.3 1.7-.2 3 .3 1.4.6 2.6.6 2.9 0 .3-.5 1.6-.6 2.8-.1 2.2.8 6.9.6 9.3-.3.7-.3 1.6-.1 1.9.4.3.6 1.5.6 3 0 1.4-.5 2.7-.5 3 0 .3.5 1.8.5 3.5 0 1.6-.5 3.2-.5 3.5 0 .3.5 1.9.5 3.5 0 1.7-.5 3-.5 3 0s1.2.5 2.8.1c2.8-.7 7.5-.6 9.9.3.7.3 1.3.1 1.3-.4s1.3-.5 3 0 3 .5 3 0 1.3-.5 3 0 3 .5 3 0 1.3-.5 3 0 3 .5 3 0 1.2-.5 2.8-.1c1.5.5 3.7.5 4.9 0 1.3-.5 2.5-.4 2.8.1.3.6 1.5.6 3 0 1.4-.5 2.7-.5 3 0 .3.5 1.8.5 3.5 0s3-.5 3 0 1.3.5 3 0c1.8-.5 3-.5 3 0 0 .6 1 .6 2.5 0s2.7-.6 3 0c.3.5 1.2.7 1.9.4 1.5-.6 2.7-7.4 1.3-7.4-.4 0-.6-.4-.2-.9.7-1.2 1.1-13.9.4-14.5-.3-.3-.3-2.9.1-5.8.3-2.9.3-7-.1-9-.3-2.1-.3-4-.1-4.3.7-.7.4-12.3-.3-13.5-.3-.5-.1-1.1.4-1.4.4-.3.5-2.3.2-4.3-.4-2.1-.4-5.3 0-7.1.3-1.8.3-3.5-.2-3.8-.5-.3-.7-.9-.4-1.4.7-1.2 1-12.8.4-13.5-.3-.2-.3-2.8.1-5.7.3-2.9.3-7-.1-9-.3-2.1-.3-4-.1-4.3.7-.7.4-12.3-.3-13.5-.3-.5-.1-1.1.4-1.4.4-.3.5-2.3.2-4.3-.4-2.1-.4-5.3 0-7.1.3-1.8.3-3.5-.2-3.7-.4-.3-.6-1.1-.3-1.8.7-1.8 1-13.7.4-13.7-.3 0-.4-2.1-.1-4.8.2-2.6 0-4.4-.4-4-.4.4-1.7.3-2.9-.2-1.3-.4-2.9-.5-3.6 0-.7.5-2.4.4-3.6 0-1.4-.6-2.6-.5-2.9 0-.3.5-1.8.5-3.5 0s-3-.5-3 0-1.3.5-3 0-3-.5-3 0-1.3.5-3 0-3-.5-3 0-1.3.5-3 0-3-.5-3 0-1.3.5-3 0-3-.5-3 0-1.3.5-3 0-3-.5-3 0-1.3.5-3 0-3-.5-3 0-1.3.5-3 0-3-.5-3 0-1.3.5-3 0-3-.5-3 0-1.3.5-3 0-3-.5-3 0-1.3.5-2.9 0c-1.5-.4-3.4-.4-4.2 0-.7.5-2 .5-2.9 0-.9-.5-2.2-.5-3 0-.8.5-1.9.6-2.4.3-1.2-.8-10.2-.7-11.5.1-.5.4-1.2.2-1.6-.3-.3-.7-1.5-.7-3-.1-1.4.5-2.7.5-3 0-.3-.5-1.8-.5-3.5 0-1.6.5-3.2.5-3.5 0-.3-.5-1.9-.5-3.5 0-1.7.5-3 .5-3 0s-1.3-.5-3 0-3 .5-3 0-1.3-.5-3 0-3.2.5-3.5 0c-.3-.5-1.6-.5-3 0s-2.7.5-3 0c-.3-.5-1.8-.5-3.5 0-1.6.5-3.2.5-3.5 0-.3-.5-1.9-.5-3.5 0-1.7.5-3 .5-3 0s-.6-.7-1.3-.4c-2.5.9-7.2 1.1-9.4.3-1.2-.5-2.5-.4-2.8.1-.3.6-1.5.6-2.9 0-1.3-.5-2.7-.6-3-.3-.8.8-7.6.9-7.6.1 0-.4-1.4-.3-3 .2-1.7.5-3 .5-3 0s-1.3-.5-3 0c-1.6.5-3 .6-3 .2 0-.4-2.9-.7-6.5-.7s-6.5.3-6.5.7c0 .4-1.3.3-3-.2s-3-.5-3 0-1.3.5-2.9 0c-1.5-.4-3.4-.4-4.2 0-.7.5-2 .5-2.9 0-.9-.5-2.2-.5-3 0-.8.5-2.1.5-3 0-.9-.5-2.2-.5-3 0-.8.5-2.1.5-3 0-.9-.5-2.2-.5-3 0-.8.5-2.1.5-3 0-.9-.5-2.2-.5-3 0-.8.5-2.1.5-3 0-.9-.5-2.2-.5-3 0-.8.5-2.1.5-3 0-.9-.5-2.2-.5-3 0-.8.5-2.1.5-3 0-.9-.5-2.2-.5-3 0-.8.5-2.1.5-3 0-.9-.5-2.2-.5-3 0-.8.5-2.1.5-3 0-.9-.5-2.2-.5-3 0-.8.5-2.1.5-3 0-.8-.4-2.2-.4-3.1 0-.8.5-2 .5-2.7.1-.7-.4-3.5-.5-6.2-.1s-5.5.3-6.2-.1c-.6-.4-1.9-.4-2.8.1-.9.5-2.2.5-3 0-.8-.5-2.1-.5-3 0-.9.5-2.2.5-3 0-.8-.5-2.1-.5-3 0-.9.5-2.2.5-3 0-.8-.5-2.1-.5-3 0-.9.5-2.2.5-3 0-.8-.5-2.1-.5-3 0-.9.5-2.2.5-3 0-.8-.5-2.1-.5-3 0-.9.5-2.2.5-3 0-.8-.5-2.1-.5-3 0-.9.5-2.2.5-3 0-.8-.5-2.1-.5-3 0-.9.5-2.2.5-3 0-.8-.5-2.1-.5-3 0-.9.5-2.2.5-3 0-.8-.5-2.1-.5-3 0-.8.4-2.2.4-3.1 0-.8-.5-2.1-.5-2.9 0-.7.4-2.4.4-3.6 0-1.4-.6-2.6-.5-2.9 0-.3.6-1.5.6-3 0s-2.7-.6-3 0c-.3.6-1.5.6-3 0s-2.7-.6-3 0c-.3.6-1.5.6-2.9 0-1.3-.5-2.7-.6-3-.3-.8.8-7.6.9-7.6.1 0-.4-1.3-.3-3 .2-1.6.5-3 .6-3 .2 0-.8-6.8-.7-7.6.1-.3.3-1.7.2-3-.3-1.4-.6-2.6-.6-2.9 0-.3.5-1.5.6-2.7.1-1.2-.4-3.8-.5-5.9-.1-2.1.4-4.3.4-5-.1-.7-.4-2-.4-2.9.1-.9.5-2.2.5-3 0-.8-.5-2.1-.5-3 0-.9.5-2.2.5-3 0-.8-.5-2.1-.5-3 0-.9.5-2.2.5-3 0-.8-.5-2.1-.5-3 0-.8.4-2.2.4-3.1 0-.8-.5-2.1-.5-2.9 0-.8.5-2.1.5-3 0-.9-.5-2.2-.5-3 0-.8.5-2.1.5-3 0-.9-.5-2.2-.5-3 0-.8.5-2.1.5-3 0-.9-.5-2.2-.5-3 0-.8.5-2.1.5-3 0-.9-.5-2.2-.5-3 0-.8.5-2.1.5-3 0-.9-.5-2.2-.5-3 0-.8.5-2.1.5-3 0-.9-.5-2.2-.5-3 0-.7.4-2.4.4-3.6 0-1.4-.6-2.6-.5-2.9 0-.3.6-1.5.6-3 0s-2.7-.6-3 0c-.3.6-1.5.6-3 0s-2.7-.6-3 0c-.3.6-1.5.6-2.9 0-1.3-.5-2.7-.6-3-.3-.8.8-7.6.9-7.6.1 0-.4-1.3-.3-3 .2-1.6.5-3 .6-3 .2 0-.8-6.8-.7-7.6.1-.3.3-1.7.2-3-.3-1.4-.6-2.6-.6-2.9 0-.3.5-1.5.6-2.8.1-1.2-.4-2.8-.6-3.4-.4zm.5 288c-1.7.4-1.8 5.1-1.8 80.4V768h159.8c87.9 0 160.1-.3 160.4-.6.4-.3.3-1.8-.2-3.3-.4-1.6-.4-3.4 0-4.1.5-.7.5-2.3 0-3.4-.4-1.1-.4-3.3.1-4.8.4-1.6.4-2.8-.1-2.8-.4 0-.5-1.5-.1-3.3.4-1.7.4-4.7 0-6.5-.3-1.8-.3-3.5.2-3.7.4-.3.4-1.6 0-2.8-.5-1.2-.5-3.4 0-4.9.4-1.6.4-2.8-.1-2.8-.4 0-.5-1.5-.1-3.3.4-1.7.4-4.7 0-6.5-.3-1.8-.3-3.5.2-3.7.4-.3.4-1.6 0-2.8-.5-1.2-.5-3.4 0-4.9.4-1.6.4-2.8-.1-2.8-.4 0-.5-1.5-.1-3.3.5-1.8.5-4.1.1-5.2-.4-1.1-.4-3 .1-4.1.4-1.2.5-2.5.2-2.8-.8-.8-.9-7.6-.1-7.6.4 0 .3-1.3-.2-3s-.5-3.2 0-3.5c.5-.3.6-1.6.1-2.8-.5-1.2-.5-3.1-.1-4.2s.5-2.4.2-2.9c-.3-.6-.5-2.8-.4-5 .4-9.2.3-12.6-.1-13.3-.2-.4-.1-1.7.3-2.8.4-1.1.4-3.2 0-4.6-.4-1.5-.4-3.2 0-3.9.5-.7.5-2.3 0-3.4-.4-1.2-.4-3.1.1-4.3.4-1.2.4-2.5-.1-2.8-.5-.3-.5-1.8 0-3.5s.5-3 .1-3-.6-1.3-.3-2.9c.3-2.2-.1-3.2-1.6-4-1.4-.7-2.3-.8-2.7-.1-.4.6-1.3.7-2.3.1-1-.5-2.4-.6-3.3-.1-.8.5-2.1.5-2.9 0-.7-.4-2.4-.4-3.6 0-1.4.6-2.6.5-2.9-.1-.4-.6-1.3-.6-2.3 0-.9.5-2.6.5-3.9 0-1.3-.5-2.3-.5-2.3-.1s-2.1.6-4.7.4c-2.7-.1-5.4-.3-6-.2h-50.5c-.7.1-3.4-.1-6.1-.2-2.6-.2-4.7 0-4.7.4s-1.1.3-2.5-.2c-1.5-.6-2.7-.6-3 0-.3.5-1.5.6-2.8.1-1.2-.5-3.2-.5-4.4 0-1.3.5-2.5.4-2.8-.2-.4-.6-1.3-.6-2.3 0-.9.5-2.6.5-3.9 0-1.3-.5-2.3-.5-2.3-.1 0 .8-8.9.7-9.7-.2-.3-.3-1.4-.1-2.4.4-1.1.7-2 .7-2.4 0-.3-.5-1.5-.6-2.8-.1-1.2.5-3.4.5-4.9 0-1.6-.4-2.8-.4-2.8.1s-1.3.5-3 0-3-.5-3 0-1.3.5-3 0-3-.5-3 0-1.3.5-3 0c-1.8-.5-3-.5-3 0 0 .6-1 .6-2.4 0-1.3-.5-2.7-.6-3-.3-.8.8-7.6.9-7.6.1 0-.4-1.3-.3-3 .2s-3 .5-3 .1-2.7-.4-6-.1c-3.3.3-6 .3-6-.1s-1.3-.4-3 .1-3 .6-3 .2c0-.8-6.8-.7-7.6.1-.3.3-1.7.2-3-.3-1.4-.6-2.4-.6-2.4 0 0 .5-1.2.5-3 0-1.7-.5-3-.5-3 0s-1.3.5-3 0-3-.5-3 0-1.3.5-3 0-3-.5-3 0-1.2.5-2.8.1c-1.5-.5-3.7-.5-4.9 0-1.3.5-2.5.4-2.8-.1-.4-.6-1.3-.7-2.4-.1-.9.5-2.3.6-2.9.2-.7-.4-3.5-.4-6.2-.1-2.8.4-5 .3-5-.1s-1.4-.4-3 .1-3 .6-3 .2c0-.8-6.8-.7-7.6.1-.3.3-1.7.2-3-.3-1.4-.6-2.4-.6-2.4 0 0 .5-1.2.5-3 0-1.7-.5-3-.5-3 0s-1.3.5-3 0-3-.5-3 0-1.3.5-3 0-3-.5-3 0-1.2.5-2.8.1c-1.5-.5-3.7-.5-4.9 0-1.3.5-2.5.4-2.8-.1-.4-.6-1.3-.7-2.3-.1-1 .5-2.4.6-3.2.2-.8-.4-2.3-.6-3.2-.4z"/></svg>